<svg xmlns="http://www.w3.org/2000/svg" viewBox="0 0 48 48">
  <g stroke-linejoin="round" stroke-linecap="round">
    <rect x="6" y="3" width="36" height="42" rx="4" fill="#F7ECD2" stroke="#2B1B12" stroke-width="2.5"/>
    <rect x="9" y="6" width="30" height="36" rx="2.5" fill="none" stroke="#7C4DBE" stroke-width="2"/>
    <path d="M9,4.5 L10.5,6 L9,7.5 L7.5,6 Z M39,4.5 L40.5,6 L39,7.5 L37.5,6 Z M9,40.5 L10.5,42 L9,43.5 L7.5,42 Z M39,40.5 L40.5,42 L39,43.5 L37.5,42 Z" fill="#7C4DBE"/>
    <rect x="15" y="4" width="18" height="6.5" rx="3" fill="#7C4DBE" stroke="#2B1B12" stroke-width="1.8"/>
    <circle cx="20" cy="7.2" r="1.1" fill="#FFFDF6"/>
    <circle cx="28" cy="7.2" r="1.1" fill="#FFFDF6"/>
    <circle cx="24" cy="26" r="10.5" fill="#FFFDF6" stroke="#7C4DBE" stroke-width="2"/>
    <!-- water-hyacinth clump face -->
    <path d="M16,29 Q13,21 20,18.5 Q19,14 24,14 Q29,13.5 28,18 Q33,20 31.5,27 Q30,32 24,32.5 Q18,32.5 16,29 Z" fill="#5FA463" stroke="#2B1B12" stroke-width="1.8"/>
    <path d="M19,20 L18,16 M24,17 L24,13 M28,19 L30,16" stroke="#2B1B12" stroke-width="1.4"/>
    <circle cx="31.5" cy="20" r="2.2" fill="#C77DBE" stroke="#2B1B12" stroke-width="1.3"/>
    <circle cx="35" cy="22.5" r="1.9" fill="#B76AB0" stroke="#2B1B12" stroke-width="1.2"/>
    <circle cx="21" cy="25" r="2.1" fill="#FFFDF6" stroke="#2B1B12" stroke-width="1.4"/>
    <circle cx="27.5" cy="24.5" r="2.2" fill="#FFFDF6" stroke="#2B1B12" stroke-width="1.4"/>
    <circle cx="21.5" cy="25.5" r="0.9" fill="#2B1B12"/>
    <circle cx="28" cy="25" r="0.9" fill="#2B1B12"/>
    <path d="M22.5,29 Q24.5,30.5 26.5,29" stroke="#2B1B12" stroke-width="1.3" fill="none"/>
  </g>
</svg>
