<svg xmlns="http://www.w3.org/2000/svg" viewBox="0 0 48 48">
  <defs>
    <linearGradient id="gold" x1="0" y1="0" x2="1" y2="1">
      <stop offset="0" stop-color="#FFE083"/>
      <stop offset="1" stop-color="#E8A93B"/>
    </linearGradient>
  </defs>
  <g stroke-linejoin="round" stroke-linecap="round">
    <!-- radiant glow -->
    <circle cx="24" cy="12" r="10" fill="#FFD766" opacity="0.35"/>
    <!-- rays -->
    <g stroke="#FFD766" stroke-width="2.6" opacity="0.95">
      <path d="M24,2 L24,5.5"/>
      <path d="M12,6 L14.5,8.5"/>
      <path d="M36,6 L33.5,8.5"/>
      <path d="M8,16 L11.5,16"/>
      <path d="M40,16 L36.5,16"/>
      <path d="M15,22 L17.5,20"/>
      <path d="M33,22 L30.5,20"/>
    </g>
    <!-- legendary golden staff -->
    <path d="M24,11 L24,45" stroke="#2B1B12" stroke-width="8.5"/>
    <path d="M24,11 L24,45" stroke="url(#gold)" stroke-width="5.5"/>
    <path d="M24,11 Q34,8 32,18" fill="none" stroke="#2B1B12" stroke-width="8.5"/>
    <path d="M24,11 Q34,8 32,18" fill="none" stroke="url(#gold)" stroke-width="5.5"/>
    <circle cx="32.5" cy="17" r="3.4" fill="#D14B3D" stroke="#2B1B12" stroke-width="2"/>
    <circle cx="31.6" cy="16" r="1" fill="#FFE9AE"/>
    <!-- grip wraps -->
    <path d="M21,38.5 L27,38.5 M21,41 L27,41 M21,43.5 L27,43.5" stroke="#C97F12" stroke-width="1.8"/>
    <!-- sparkles -->
    <path d="M9,26 L10.2,28.8 L13,30 L10.2,31.2 L9,34 L7.8,31.2 L5,30 L7.8,28.8 Z" fill="#FFF6D8" stroke="#EDA614" stroke-width="1.2"/>
    <path d="M39,30 L40,32.2 L42.2,33.2 L40,34.2 L39,36.4 L38,34.2 L35.8,33.2 L38,32.2 Z" fill="#FFF6D8" stroke="#EDA614" stroke-width="1.2"/>
    <circle cx="14" cy="40" r="1.4" fill="#FFD766"/>
    <circle cx="37" cy="9" r="1.6" fill="#FFD766"/>
  </g>
</svg>
