<svg xmlns="http://www.w3.org/2000/svg" viewBox="0 0 144 144">
  <g stroke-linejoin="round" stroke-linecap="round">
    <!-- boss aura -->
    <circle cx="72" cy="76" r="64" fill="#FFD766" opacity="0.16"/>
    <circle cx="72" cy="76" r="52" fill="#FFD766" opacity="0.14"/>
    <!-- royal maroon cape: flared shoulders, deep asymmetric pointed hem -->
    <path d="M34,62 Q16,96 22,130 L36,114 L47,132 L56,116 L66,136 L76,116 L86,131 L94,113 L102,126 Q120,94 108,62 Q90,50 71,50 Q52,50 34,62 Z" fill="#7A1F4B" stroke="#2B1B12" stroke-width="5"/>
    <path d="M22,130 L36,114 L47,132 L56,116 L66,136 L76,116 L86,131 L94,113 L102,126" fill="none" stroke="#FFD766" stroke-width="3.5"/>
    <!-- cloth folds -->
    <path d="M44,66 Q36,94 40,122" fill="none" stroke="#5E1540" stroke-width="4"/>
    <path d="M100,64 Q110,92 103,118" fill="none" stroke="#5E1540" stroke-width="4"/>
    <path d="M62,60 Q57,92 61,126" fill="none" stroke="#93315F" stroke-width="3.5" opacity="0.85"/>
    <path d="M82,58 Q89,90 84,122" fill="none" stroke="#93315F" stroke-width="3" opacity="0.7"/>
    <!-- shoulder tucks peeking past the body -->
    <path d="M34,62 Q30,68 33,74" fill="none" stroke="#93315F" stroke-width="3" opacity="0.9"/>
    <path d="M108,62 Q112,68 109,74" fill="none" stroke="#93315F" stroke-width="3" opacity="0.9"/>
    <!-- tail -->
    <path d="M110,94 Q136,86 134,62 Q133,50 122,50" fill="none" stroke="#2B1B12" stroke-width="11"/>
    <path d="M110,94 Q136,86 134,62 Q133,50 122,50" fill="none" stroke="#D99A91" stroke-width="6"/>
    <!-- royal body -->
    <path d="M36,104 Q32,54 72,42 Q112,42 109,84 Q106,120 72,124 Q38,124 36,104 Z" fill="#8D6E63" stroke="#2B1B12" stroke-width="5.5"/>
    <ellipse cx="72" cy="94" rx="28" ry="21" fill="#C9B2A6"/>
    <!-- ears -->
    <circle cx="44" cy="40" r="17" fill="#8D6E63" stroke="#2B1B12" stroke-width="5"/>
    <circle cx="44" cy="40" r="8.5" fill="#E8A0A0"/>
    <circle cx="100" cy="34" r="18" fill="#8D6E63" stroke="#2B1B12" stroke-width="5"/>
    <circle cx="100" cy="34" r="9" fill="#E8A0A0"/>
    <!-- golden crown -->
    <path d="M54,44 L54,18 L62,30 L72,12 L82,30 L90,18 L90,44 Z" fill="#FFC93C" stroke="#2B1B12" stroke-width="4"/>
    <path d="M54,38 L90,38" stroke="#C97F12" stroke-width="2.5"/>
    <circle cx="72" cy="32" r="3" fill="#D14B3D" stroke="#2B1B12" stroke-width="1.8"/>
    <!-- majestic whiskers -->
    <path d="M50,74 Q28,66 12,70" fill="none" stroke="#2B1B12" stroke-width="3.2"/>
    <path d="M50,80 Q30,84 18,94" fill="none" stroke="#2B1B12" stroke-width="3.2"/>
    <path d="M94,72 Q116,64 132,70" fill="none" stroke="#2B1B12" stroke-width="3.2"/>
    <path d="M94,78 Q118,80 128,90" fill="none" stroke="#2B1B12" stroke-width="3.2"/>
    <!-- determined cute face -->
    <path d="M50,54 L68,59" stroke="#2B1B12" stroke-width="3.5"/>
    <path d="M96,52 L78,58" stroke="#2B1B12" stroke-width="3.5"/>
    <circle cx="60" cy="66" r="10" fill="#FFFDF6" stroke="#2B1B12" stroke-width="3.5"/>
    <circle cx="86" cy="64" r="10.5" fill="#FFFDF6" stroke="#2B1B12" stroke-width="3.5"/>
    <circle cx="62" cy="68" r="4.4" fill="#2B1B12"/>
    <circle cx="88" cy="66" r="4.6" fill="#2B1B12"/>
    <circle cx="60.5" cy="64.5" r="1.4" fill="#FFFDF6"/>
    <circle cx="86.5" cy="62.5" r="1.4" fill="#FFFDF6"/>
    <path d="M69,76 L77,76 L73,81 Z" fill="#E58A9A" stroke="#2B1B12" stroke-width="3"/>
    <path d="M67,82 Q73,79 79,82" stroke="#2B1B12" stroke-width="2.6" fill="none"/>
    <path d="M68,82.5 L72.5,82.5 L72.5,92 L68,92 Z" fill="#FFFDF6" stroke="#2B1B12" stroke-width="3"/>
    <path d="M72.5,82.5 L77,82.5 L77,92 L72.5,92 Z" fill="#FFFDF6" stroke="#2B1B12" stroke-width="3"/>
    <circle cx="53" cy="76" r="4" fill="#E58A63" opacity="0.5"/>
    <circle cx="93" cy="74" r="4" fill="#E58A63" opacity="0.5"/>
    <!-- gold collar -->
    <path d="M58,92 Q72,100 88,92" fill="none" stroke="#FFC93C" stroke-width="5"/>
    <circle cx="73" cy="99" r="3.2" fill="#D14B3D" stroke="#2B1B12" stroke-width="2.2"/>
    <!-- paws with giant rice grain -->
    <ellipse cx="73" cy="105" rx="8.5" ry="4.5" transform="rotate(-18 73 105)" fill="#F2C94C" stroke="#2B1B12" stroke-width="3.5"/>
    <path d="M68.5,103.3 L77.5,106.8" stroke="#2B1B12" stroke-width="1.8"/>
    <circle cx="58" cy="108" r="9" fill="#8D6E63" stroke="#2B1B12" stroke-width="4.5"/>
    <circle cx="89" cy="108" r="9" fill="#8D6E63" stroke="#2B1B12" stroke-width="4.5"/>
    <path d="M54,105.5 L55.5,108.5" stroke="#2B1B12" stroke-width="2"/>
    <path d="M85,105.5 L86.5,108.5" stroke="#2B1B12" stroke-width="2"/>
    <!-- feet -->
    <ellipse cx="48" cy="122" rx="10" ry="6.5" fill="#C9B2A6" stroke="#2B1B12" stroke-width="4.5"/>
    <ellipse cx="98" cy="122" rx="10" ry="6.5" fill="#C9B2A6" stroke="#2B1B12" stroke-width="4.5"/>
  </g>
</svg>
